<svg xmlns="http://www.w3.org/2000/svg" width="1200" height="800" viewBox="0 0 1200 800"><rect width="1200" height="800" fill="#e6edf6"/><text x="65" y="113" font-family="Arial,sans-serif" font-size="35" font-weight="bold" fill="#2c63a8">context<tspan fill="#2c63a8">.</tspan></text><text x="65" y="151" font-family="Arial,sans-serif" font-size="16" fill="#526174">Your knowledge, connected</text><rect x="65" y="210" width="1070" height="610" rx="13" fill="white"/><rect x="65" y="210" width="198" height="610" rx="13" fill="#f9fafc"/><path d="M263 210v610" stroke="#e5e9ef"/><text x="95" y="257" font-family="Arial,sans-serif" font-size="18" font-weight="bold" fill="#22334c">Context</text><rect x="83" y="298" width="164" height="37" rx="5" fill="#e6edf6"/><rect x="98" y="312" width="12" height="12" rx="3" fill="#2c63a8"/><text x="124" y="322" font-family="Arial,sans-serif" font-size="14" fill="#526174">Overview</text><rect x="98" y="360" width="12" height="12" rx="3" fill="#bbc4d0"/><text x="124" y="370" font-family="Arial,sans-serif" font-size="14" fill="#526174">Projects</text><rect x="98" y="408" width="12" height="12" rx="3" fill="#bbc4d0"/><text x="124" y="418" font-family="Arial,sans-serif" font-size="14" fill="#526174">Team</text><rect x="98" y="456" width="12" height="12" rx="3" fill="#bbc4d0"/><text x="124" y="466" font-family="Arial,sans-serif" font-size="14" fill="#526174">Documents</text><rect x="98" y="504" width="12" height="12" rx="3" fill="#bbc4d0"/><text x="124" y="514" font-family="Arial,sans-serif" font-size="14" fill="#526174">Settings</text><text x="307" y="267" font-family="Arial,sans-serif" font-size="13" fill="#7e8a9b">WORKSPACE / OVERVIEW</text><text x="307" y="321" font-family="Arial,sans-serif" font-size="29" font-weight="bold" fill="#152b49">Ask your workspace</text><text x="307" y="355" font-family="Arial,sans-serif" font-size="14" fill="#7e8a9b">A little clarity for the work ahead.</text><rect x="307" y="395" width="779" height="118" rx="8" fill="#f2f5fa"/><text x="332" y="432" font-family="Arial,sans-serif" font-size="16" fill="#334969">How can I help with your work today?</text><text x="332" y="478" font-family="Arial,sans-serif" font-size="13" fill="#7e8a9b">Search documents, explore ideas, or ask a question...</text><rect x="307" y="555" width="245" height="112" rx="7" fill="#fff" stroke="#e2e7ef"/><text x="327" y="587" font-family="Arial,sans-serif" font-size="13" fill="#6d7c90">Product documentation</text><text x="327" y="634" font-family="Arial,sans-serif" font-size="29" font-weight="bold" fill="#2c63a8">12</text><rect x="574" y="555" width="245" height="112" rx="7" fill="#fff" stroke="#e2e7ef"/><text x="594" y="587" font-family="Arial,sans-serif" font-size="13" fill="#6d7c90">Team knowledge</text><text x="594" y="634" font-family="Arial,sans-serif" font-size="29" font-weight="bold" fill="#2c63a8">28</text><rect x="841" y="555" width="245" height="112" rx="7" fill="#fff" stroke="#e2e7ef"/><text x="861" y="587" font-family="Arial,sans-serif" font-size="13" fill="#6d7c90">Recent conversations</text><text x="861" y="634" font-family="Arial,sans-serif" font-size="29" font-weight="bold" fill="#2c63a8">08</text></svg>